<?xml version="1.0" encoding="UTF-8" standalone="no"?>
<svg
   xmlns:dc="http://purl.org/dc/elements/1.1/"
   xmlns:cc="http://creativecommons.org/ns#"
   xmlns:rdf="http://www.w3.org/1999/02/22-rdf-syntax-ns#"
   xmlns:svg="http://www.w3.org/2000/svg"
   xmlns="http://www.w3.org/2000/svg"
   viewBox="0 0 2666.6667 2666.6667"
   height="2666.6667"
   width="2666.6667"
   xml:space="preserve"
   id="svg2"
   version="1.1"><metadata
     id="metadata8"><rdf:RDF><cc:Work
         rdf:about=""><dc:format>image/svg+xml</dc:format><dc:type
           rdf:resource="http://purl.org/dc/dcmitype/StillImage" /></cc:Work></rdf:RDF></metadata><defs
     id="defs6" /><g
     transform="matrix(1.3333333,0,0,-1.3333333,0,2666.6667)"
     id="g10"><g
       transform="scale(0.1)"
       id="g12"><g
         transform="scale(1.04701)"
         id="g18"><path
           id="path20"
           style="fill:#221d1d;fill-opacity:1;fill-rule:nonzero;stroke:none"
           d="m 13463,9444.57 c 0,0 -593.7,305.91 -1115.5,-17.95 0,0 -1403.5,737.68 -2627,-359.89 0,0 -989.65,431.81 -1835.34,-251.85 0,0 -1.74,1041.07 -179.92,1493.42 -233.92,593.7 -431.84,2878.9 503.8,3490.6 935.65,611.8 953.64,1151.6 593.77,1565.4 0,0 251.91,935.7 -377.85,557.8 0,0 -359.86,287.9 -467.82,-18 0,0 -431.83,323.9 -539.8,-107.9 0,0 -359.86,143.9 -431.84,-179.9 -53.83,-242.3 -258.63,-454.3 -290.71,-997.5 -33.98,-575.2 -140.95,-1143.9 -311.65,-1694.2 -361.96,-1166.9 -945.05,-2778.3 -675.15,-4811.53 0,0 -161.93,-395.79 125.95,-521.77 287.9,-125.98 1079.6,-989.67 2159.18,-809.73 0,0 1529.43,-1151.56 2914.88,-575.73 0,0 125.9,-1205.52 611.8,-1511.44 485.8,-305.92 323.9,-1637.42 323.9,-1637.42 0,0 719.6,1061.59 359.9,2393.09 -359.9,1331.5 -252,3040.93 1259.4,3994.5" /></g></g></g></svg>