<?xml version="1.0" encoding="UTF-8" standalone="no"?>
<svg
   xmlns:dc="http://purl.org/dc/elements/1.1/"
   xmlns:cc="http://creativecommons.org/ns#"
   xmlns:rdf="http://www.w3.org/1999/02/22-rdf-syntax-ns#"
   xmlns:svg="http://www.w3.org/2000/svg"
   xmlns="http://www.w3.org/2000/svg"
   viewBox="0 0 5333.3335 5333.3335"
   height="5333.3335"
   width="5333.3335"
   xml:space="preserve"
   id="svg2"
   version="1.1"><metadata
     id="metadata8"><rdf:RDF><cc:Work
         rdf:about=""><dc:format>image/svg+xml</dc:format><dc:type
           rdf:resource="http://purl.org/dc/dcmitype/StillImage" /></cc:Work></rdf:RDF></metadata><defs
     id="defs6" /><g
     transform="matrix(1.3333333,0,0,-1.3333333,0,5333.3333)"
     id="g10"><g
       transform="scale(0.1)"
       id="g12"><g
         transform="scale(1.86573)"
         id="g18"><path
           id="path20"
           style="fill:#231f20;fill-opacity:1;fill-rule:nonzero;stroke:none"
           d="m 8670.81,14585.8 c 16.03,-557.3 -72.47,-1071.4 -170.71,-1585.5 -62.12,-324.9 -112.08,-652.5 -154.42,-980.6 -14.36,-111.2 8.36,-227.9 19.19,-341.5 16.19,-169.4 -19.94,-329.3 -89.56,-480.6 -218.79,-475.6 -316.88,-980.5 -372.4,-1496.04 -39.77,-369.24 -80.83,-738.37 -113.31,-1108.25 -21.17,-240.34 -32.59,-481.75 -40.15,-722.94 -12.64,-406 -20.63,-812.23 -26.1,-1218.39 -1.07,-79.7 15.81,-160.05 28.57,-239.43 29.1,-181.59 141.23,-297.68 298.97,-380.97 480.88,-253.74 994.04,-407.08 1528.2,-495.89 59.33,-9.92 120.27,-10.24 180.09,-17.8 80.07,-10.08 98.35,-55.74 74.28,-129.12 -46.47,-141.71 -127.67,-180.73 -274.1,-172.1 -183.46,10.83 -370.1,13.08 -552.06,-8.58 -233.05,-27.65 -462.34,-25.67 -690.99,18.44 -261.61,50.49 -520.92,35.11 -782.7,0.16 -135.01,-18.06 -274.31,-22.24 -410.08,-12.06 -162.56,12.17 -243.49,149.65 -215.3,314.09 43.52,253.62 109.39,504.73 133.73,759.91 23.05,242.11 13.72,488.5 2.19,732.21 -10.23,216.75 -32.26,434.25 -68.49,648.16 -53.12,313.45 -128.32,623.08 -185.24,935.99 -47.76,262.74 -110.84,527.09 -117.49,792.02 -12.81,512.83 65.5,1014.49 282.74,1488.79 46.04,100.5 64.15,219.4 70.64,331.4 25.62,438.8 -107.52,854.5 -192.8,1278.1 -73.16,363.4 -131.79,730.9 -173.39,1099.3 -31.99,283.2 -41.05,570.8 -35.96,856 7.13,400.3 50.76,798.3 257.7,1154.6 166.8,287.3 365.22,566.6 714.68,622.2 455.64,72.6 712,-24.2 865.34,-438.5 147.56,-398.5 204.75,-811.7 208.93,-1203.1" /></g><g
         transform="scale(1.12664)"
         id="g22"><path
           id="path24"
           style="fill:#231f20;fill-opacity:1;fill-rule:nonzero;stroke:none"
           d="m 16298.4,9110.29 c -1.5,-45.98 -107.4,-79.88 -236.6,-75.62 -129.2,4.26 -232.7,45 -231.2,91.06 1.5,45.98 107.5,79.89 236.7,75.63 129.2,-4.26 232.7,-45 231.1,-91.07" /></g><g
         transform="scale(1.12664)"
         id="g26"><path
           id="path28"
           style="fill:none;stroke:#211d1d;stroke-width:17.75189972;stroke-linecap:butt;stroke-linejoin:miter;stroke-miterlimit:10;stroke-dasharray:none;stroke-opacity:1"
           d="m 16298.4,9110.29 c -1.5,-45.98 -107.4,-79.88 -236.6,-75.62 -129.2,4.26 -232.7,45 -231.2,91.06 1.5,45.98 107.5,79.89 236.7,75.63 129.2,-4.26 232.7,-45 231.1,-91.07 z" /></g><g
         transform="scale(1.86971)"
         id="g30"><path
           id="path32"
           style="fill:#231f20;fill-opacity:1;fill-rule:nonzero;stroke:none"
           d="m 9635.23,15018.5 c 263.14,-490.1 413.87,-988.4 555.77,-1491 89.7,-317.7 191.5,-632.3 300.1,-944 36.9,-105.6 109.3,-199.6 169.7,-296.2 90.1,-143.9 129.3,-302.7 134.8,-468.8 17.1,-522.1 155.1,-1016.5 335.8,-1501.3 129.4,-347.27 257.7,-695.02 393.9,-1039.57 88.5,-223.88 186.1,-444.45 287.1,-662.99 170,-367.97 344.3,-734.01 520.8,-1098.94 34.6,-71.56 85.6,-135.74 132.4,-200.88 107.1,-149.01 259,-202.55 437,-206.4 542.4,-11.66 1068.8,80.66 1585.1,239.98 57.4,17.71 111.9,44.61 168.7,64.61 75.9,26.75 112.6,-5.83 123.9,-82.04 21.9,-147.24 -33.2,-218.32 -167.7,-276.03 -168.6,-72.26 -336.1,-153.66 -488.8,-254.21 -195.6,-128.79 -401.1,-229.4 -624.9,-292.13 -255.9,-71.83 -480.5,-201.37 -698.4,-349.47 -112.5,-76.43 -234.9,-142.37 -360.6,-193.93 -150.5,-61.72 -284.1,24.82 -332.4,184.14 -74.4,245.76 -127.8,499.28 -220.1,737.87 -87.5,226.29 -205.9,441.99 -325,654.33 -106,188.8 -222.7,373.1 -350.6,547.78 -187.4,255.98 -392.8,498.69 -583.3,752.52 -160,213.09 -334.4,420.82 -458.6,654.22 -240.51,451.95 -394.65,934.54 -412.62,1454.74 -3.8,110.3 -40.81,224.6 -84.99,327.3 -173.13,403 -477.61,714.6 -742.89,1054.4 -227.63,291.6 -444.08,593.4 -645.72,903.6 -155.05,238.4 -291.59,490.9 -414.39,747.7 -172.38,360.4 -311.28,735.1 -285.77,1145.4 20.59,330.9 72.9,668.7 359.9,874.5 374.17,268.2 646.19,296.3 968.01,-4.9 309.67,-289.7 545.21,-632.8 723.8,-980.3" /></g><g
         transform="scale(1.69183)"
         id="g34"><path
           id="path36"
           style="fill:#231f20;fill-opacity:1;fill-rule:nonzero;stroke:none"
           d="m 16287.2,8216.97 c 12.8,-27.9 -40.2,-79.62 -118.4,-115.61 -78.2,-35.94 -151.9,-42.5 -164.8,-14.66 -12.8,27.84 40.2,79.61 118.4,115.61 78.2,35.94 151.9,42.5 164.8,14.66" /></g><g
         transform="scale(1.69183)"
         id="g38"><path
           id="path40"
           style="fill:none;stroke:#211d1d;stroke-width:11.82149982;stroke-linecap:butt;stroke-linejoin:miter;stroke-miterlimit:10;stroke-dasharray:none;stroke-opacity:1"
           d="m 16287.2,8216.97 c 12.8,-27.9 -40.2,-79.62 -118.4,-115.61 -78.2,-35.94 -151.9,-42.5 -164.8,-14.66 -12.8,27.84 40.2,79.61 118.4,115.61 78.2,35.94 151.9,42.5 164.8,14.66 z" /></g></g></g></svg>